<mxfile host="app.diagrams.net" modified="2023-08-06T08:11:16.418Z" agent="Mozilla/5.0 (Macintosh; Intel Mac OS X 10_15_7) AppleWebKit/537.36 (KHTML, like Gecko) Chrome/114.0.0.0 Safari/537.36" version="21.6.5" etag="UvCCzsW-Ofl68oxGX1Kg" type="github">
  <diagram name="Page-1" id="0EL35rjyUJiDG3p9aiOp">
    <mxGraphModel>
      <root>
        <mxCell id="0" />
        <mxCell id="1" parent="0" />
      </root>
    </mxGraphModel>
  </diagram>
</mxfile>
